<svg width="36" height="36" viewBox="0 0 36 36" fill="none" xmlns="http://www.w3.org/2000/svg">
<g id="&#240;&#159;&#166;&#134; icon &#34;group&#34;">
<path id="Vector" d="M23.9595 16.4721C26.4452 16.4721 28.4369 14.4655 28.4369 11.9797C28.4369 9.4939 26.4452 7.4873 23.9595 7.4873C21.4737 7.4873 19.4671 9.4939 19.4671 11.9797C19.4671 14.4655 21.4737 16.4721 23.9595 16.4721ZM11.9798 16.4721C14.4656 16.4721 16.4572 14.4655 16.4572 11.9797C16.4572 9.4939 14.4656 7.4873 11.9798 7.4873C9.494 7.4873 7.4874 9.4939 7.4874 11.9797C7.4874 14.4655 9.494 16.4721 11.9798 16.4721ZM11.9798 19.467C8.4907 19.467 1.49756 21.219 1.49756 24.7081V28.4517H22.462V24.7081C22.462 21.219 15.4689 19.467 11.9798 19.467ZM23.9595 19.467C23.5252 19.467 23.031 19.4969 22.5069 19.5419C24.244 20.7997 25.4569 22.4919 25.4569 24.7081V28.4517H34.4417V24.7081C34.4417 21.219 27.4485 19.467 23.9595 19.467Z" fill="black"/>
</g>
</svg>
